<svg xmlns="http://www.w3.org/2000/svg" viewBox="0 0 1200 1200" width="1200" height="1200" role="img" aria-labelledby="title desc">
  <title id="title">AirPods 4</title><desc id="desc">Ilustração editorial exclusiva do produto AirPods 4</desc>
  <defs>
    <radialGradient id="bg" cx="72%" cy="37%"><stop stop-color="#0b6f69"/><stop offset=".48" stop-color="#101515"/><stop offset="1" stop-color="#050606"/></radialGradient>
    <linearGradient id="metal" x1="0" y1="0" x2="1" y2="1"><stop stop-color="#f4f1e8"/><stop offset=".36" stop-color="#8d9697"/><stop offset=".72" stop-color="#222728"/><stop offset="1" stop-color="#dce4e3"/></linearGradient>
    <linearGradient id="screen" x1="0" y1="0" x2="1" y2="1"><stop stop-color="#020405"/><stop offset=".48" stop-color="#0b6f69"/><stop offset=".75" stop-color="#c8ff4d"/><stop offset="1" stop-color="#030505"/></linearGradient>
    <linearGradient id="glass" x1="0" y1="0" x2="1" y2="1"><stop stop-color="#cfe8ef" stop-opacity=".82"/><stop offset=".45" stop-color="#0b6f69" stop-opacity=".45"/><stop offset="1" stop-color="#0b0e10" stop-opacity=".88"/></linearGradient>
    <pattern id="mesh" width="22" height="22" patternUnits="userSpaceOnUse"><rect width="22" height="22" fill="#273030"/><circle cx="5" cy="5" r="3" fill="#c8ff4d" opacity=".48"/></pattern>
    <filter id="shadow"><feDropShadow dx="0" dy="34" stdDeviation="28" flood-color="#000" flood-opacity=".55"/></filter>
    <filter id="blur"><feGaussianBlur stdDeviation="26"/></filter>
  </defs>
  <rect width="1200" height="1200" rx="100" fill="url(#bg)"/>
  <circle cx="342" cy="382" r="442" fill="none" stroke="#c8ff4d" stroke-width="4" opacity=".16"/>
  <ellipse cx="600" cy="930" rx="390" ry="95" fill="#c8ff4d" opacity=".16" filter="url(#blur)"/>
  <g filter="url(#shadow)"><g><path d="M360 350 Q360 220 490 220 Q620 220 620 350 V540 Q620 640 520 640 H470 V930 Q470 1020 390 1020 Q310 1020 310 930 V520 Q250 455 250 350 Q250 220 360 220Z" fill="url(#metal)"/>
      <path d="M840 350 Q840 220 710 220 Q580 220 580 350 V540 Q580 640 680 640 H730 V930 Q730 1020 810 1020 Q890 1020 890 930 V520 Q950 455 950 350 Q950 220 840 220Z" fill="url(#metal)"/>
      <circle cx="355" cy="360" r="58" fill="#c8ff4d" opacity=".42"/><circle cx="845" cy="360" r="58" fill="#c8ff4d" opacity=".42"/></g></g>
  <path d="M95 1035 H1105" stroke="rgba(255,255,255,.12)"/>
  <circle cx="918" cy="312" r="11" fill="#c8ff4d"/>
</svg>