<svg xmlns="http://www.w3.org/2000/svg" viewBox="0 0 1200 1200" width="1200" height="1200" role="img" aria-labelledby="title desc">
  <title id="title">AirPods Max (Lightning)</title><desc id="desc">Ilustração editorial exclusiva do produto AirPods Max (Lightning)</desc>
  <defs>
    <radialGradient id="bg" cx="56%" cy="36%"><stop stop-color="#155e54"/><stop offset=".48" stop-color="#101515"/><stop offset="1" stop-color="#050606"/></radialGradient>
    <linearGradient id="metal" x1="0" y1="0" x2="1" y2="1"><stop stop-color="#e9fff4"/><stop offset=".36" stop-color="#8d9697"/><stop offset=".72" stop-color="#222728"/><stop offset="1" stop-color="#dce4e3"/></linearGradient>
    <linearGradient id="screen" x1="0" y1="0" x2="1" y2="1"><stop stop-color="#020405"/><stop offset=".48" stop-color="#155e54"/><stop offset=".75" stop-color="#a8f0cc"/><stop offset="1" stop-color="#030505"/></linearGradient>
    <linearGradient id="glass" x1="0" y1="0" x2="1" y2="1"><stop stop-color="#cfe8ef" stop-opacity=".82"/><stop offset=".45" stop-color="#155e54" stop-opacity=".45"/><stop offset="1" stop-color="#0b0e10" stop-opacity=".88"/></linearGradient>
    <pattern id="mesh" width="22" height="22" patternUnits="userSpaceOnUse"><rect width="22" height="22" fill="#273030"/><circle cx="5" cy="5" r="3" fill="#a8f0cc" opacity=".48"/></pattern>
    <filter id="shadow"><feDropShadow dx="0" dy="34" stdDeviation="28" flood-color="#000" flood-opacity=".55"/></filter>
    <filter id="blur"><feGaussianBlur stdDeviation="26"/></filter>
  </defs>
  <rect width="1200" height="1200" rx="100" fill="url(#bg)"/>
  <circle cx="441" cy="361" r="381" fill="none" stroke="#a8f0cc" stroke-width="4" opacity=".16"/>
  <ellipse cx="600" cy="930" rx="390" ry="95" fill="#a8f0cc" opacity=".16" filter="url(#blur)"/>
  <g filter="url(#shadow)"><g><path d="M340 660 V470 Q340 210 600 210 Q860 210 860 470 V660" fill="none" stroke="url(#metal)" stroke-width="95"/>
        <rect x="230" y="500" width="250" height="400" rx="110" fill="url(#metal)"/>
        <rect x="720" y="500" width="250" height="400" rx="110" fill="url(#metal)"/>
        <rect x="280" y="560" width="150" height="280" rx="70" fill="#a8f0cc" opacity=".32"/>
        <rect x="770" y="560" width="150" height="280" rx="70" fill="#a8f0cc" opacity=".32"/></g></g>
  <path d="M95 1035 H1105" stroke="rgba(255,255,255,.12)"/>
  <circle cx="979" cy="211" r="11" fill="#a8f0cc"/>
</svg>