<svg xmlns="http://www.w3.org/2000/svg" viewBox="0 0 1200 1200" width="1200" height="1200" role="img" aria-labelledby="title desc">
  <title id="title">iPad mini (A17 Pro)</title><desc id="desc">Ilustração editorial exclusiva do produto iPad mini (A17 Pro)</desc>
  <defs>
    <radialGradient id="bg" cx="68%" cy="48%"><stop stop-color="#155e54"/><stop offset=".48" stop-color="#101515"/><stop offset="1" stop-color="#050606"/></radialGradient>
    <linearGradient id="metal" x1="0" y1="0" x2="1" y2="1"><stop stop-color="#e9fff4"/><stop offset=".36" stop-color="#8d9697"/><stop offset=".72" stop-color="#222728"/><stop offset="1" stop-color="#dce4e3"/></linearGradient>
    <linearGradient id="screen" x1="0" y1="0" x2="1" y2="1"><stop stop-color="#020405"/><stop offset=".48" stop-color="#155e54"/><stop offset=".75" stop-color="#a8f0cc"/><stop offset="1" stop-color="#030505"/></linearGradient>
    <linearGradient id="glass" x1="0" y1="0" x2="1" y2="1"><stop stop-color="#cfe8ef" stop-opacity=".82"/><stop offset=".45" stop-color="#155e54" stop-opacity=".45"/><stop offset="1" stop-color="#0b0e10" stop-opacity=".88"/></linearGradient>
    <pattern id="mesh" width="22" height="22" patternUnits="userSpaceOnUse"><rect width="22" height="22" fill="#273030"/><circle cx="5" cy="5" r="3" fill="#a8f0cc" opacity=".48"/></pattern>
    <filter id="shadow"><feDropShadow dx="0" dy="34" stdDeviation="28" flood-color="#000" flood-opacity=".55"/></filter>
    <filter id="blur"><feGaussianBlur stdDeviation="26"/></filter>
  </defs>
  <rect width="1200" height="1200" rx="100" fill="url(#bg)"/>
  <circle cx="443" cy="293" r="423" fill="none" stroke="#a8f0cc" stroke-width="4" opacity=".16"/>
  <ellipse cx="600" cy="930" rx="390" ry="95" fill="#a8f0cc" opacity=".16" filter="url(#blur)"/>
  <g filter="url(#shadow)"><g transform="rotate(0 600 600)"><rect x="270" y="175" width="660" height="850" rx="60" fill="url(#metal)"/>
      <rect x="305" y="210" width="590" height="780" rx="38" fill="url(#screen)"/>
      <circle cx="600" cy="192" r="8" fill="#101112"/>
      <path d="M360 830 Q600 560 870 740 V960 H330Z" fill="#a8f0cc" opacity=".34"/>
      <rect x="936" y="250" width="22" height="650" rx="11" fill="#f4f4f2" transform="rotate(3 947 575)"/></g></g>
  <path d="M95 1035 H1105" stroke="rgba(255,255,255,.12)"/>
  <circle cx="877" cy="253" r="11" fill="#a8f0cc"/>
</svg>