<svg xmlns="http://www.w3.org/2000/svg" viewBox="0 0 1200 1200" width="1200" height="1200" role="img" aria-labelledby="title desc">
  <title id="title">Apple Watch SE (1ª geração)</title><desc id="desc">Ilustração editorial exclusiva do produto Apple Watch SE (1ª geração)</desc>
  <defs>
    <radialGradient id="bg" cx="43%" cy="38%"><stop stop-color="#163a74"/><stop offset=".48" stop-color="#101515"/><stop offset="1" stop-color="#050606"/></radialGradient>
    <linearGradient id="metal" x1="0" y1="0" x2="1" y2="1"><stop stop-color="#e9f8ff"/><stop offset=".36" stop-color="#8d9697"/><stop offset=".72" stop-color="#222728"/><stop offset="1" stop-color="#dce4e3"/></linearGradient>
    <linearGradient id="screen" x1="0" y1="0" x2="1" y2="1"><stop stop-color="#020405"/><stop offset=".48" stop-color="#163a74"/><stop offset=".75" stop-color="#8de7ff"/><stop offset="1" stop-color="#030505"/></linearGradient>
    <linearGradient id="glass" x1="0" y1="0" x2="1" y2="1"><stop stop-color="#cfe8ef" stop-opacity=".82"/><stop offset=".45" stop-color="#163a74" stop-opacity=".45"/><stop offset="1" stop-color="#0b0e10" stop-opacity=".88"/></linearGradient>
    <pattern id="mesh" width="22" height="22" patternUnits="userSpaceOnUse"><rect width="22" height="22" fill="#273030"/><circle cx="5" cy="5" r="3" fill="#8de7ff" opacity=".48"/></pattern>
    <filter id="shadow"><feDropShadow dx="0" dy="34" stdDeviation="28" flood-color="#000" flood-opacity=".55"/></filter>
    <filter id="blur"><feGaussianBlur stdDeviation="26"/></filter>
  </defs>
  <rect width="1200" height="1200" rx="100" fill="url(#bg)"/>
  <circle cx="263" cy="353" r="443" fill="none" stroke="#8de7ff" stroke-width="4" opacity=".16"/>
  <ellipse cx="600" cy="930" rx="390" ry="95" fill="#8de7ff" opacity=".16" filter="url(#blur)"/>
  <g filter="url(#shadow)"><g><rect x="475" y="80" width="250" height="1040" rx="120" fill="#8de7ff" opacity=".72"/>
      <rect x="315" y="325" width="570" height="550" rx="160" fill="url(#metal)"/>
      <rect x="355" y="365" width="490" height="470" rx="125" fill="url(#screen)"/>
      <circle cx="900" cy="500" r="38" fill="url(#metal)"/>
      <circle cx="600" cy="600" r="122" fill="none" stroke="#8de7ff" stroke-width="38"/>
      <path d="M600 465 V600 L690 650" stroke="#fff" stroke-width="22" stroke-linecap="round"/></g></g>
  <path d="M95 1035 H1105" stroke="rgba(255,255,255,.12)"/>
  <circle cx="1037" cy="233" r="11" fill="#8de7ff"/>
</svg>