<svg xmlns="http://www.w3.org/2000/svg" viewBox="0 0 160 112" role="img" aria-label="Poker">
  <rect width="160" height="112" rx="10" fill="#160a13"/>
  <g transform="rotate(-8 70 56)">
    <rect x="34" y="20" width="48" height="68" rx="6" fill="#fff5d9" stroke="#07101c" stroke-width="4"/>
    <path d="M58 41c-12-12-27 8 0 27 27-19 12-39 0-27z" fill="#c93645"/>
  </g>
  <g transform="rotate(9 88 56)">
    <rect x="78" y="20" width="48" height="68" rx="6" fill="#fff5d9" stroke="#07101c" stroke-width="4"/>
    <path d="M102 38c-10 13-21 16-21 27 0 7 8 11 14 5l-4 10h22l-4-10c6 6 14 2 14-5 0-11-11-14-21-27z" fill="#07101c"/>
  </g>
  <circle cx="49" cy="87" r="10" fill="#ffd06d"/><circle cx="67" cy="89" r="10" fill="#27d1b0"/>
</svg>
