<svg xmlns="http://www.w3.org/2000/svg" viewBox="0 0 160 112" role="img" aria-label="Sinuca">
  <rect width="160" height="112" rx="10" fill="#07101c"/>
  <g stroke-linecap="round" stroke-linejoin="round">
    <rect x="14" y="16" width="132" height="80" rx="10" fill="#5a2b14" stroke="#f0bf65" stroke-width="4"/>
    <rect x="26" y="28" width="108" height="56" rx="4" fill="#0c8154" stroke="#081c16" stroke-width="6"/>
    <g fill="#02050d" stroke="#f0bf65" stroke-width="3">
      <rect x="23" y="25" width="18" height="18" rx="4"/>
      <rect x="71" y="21" width="18" height="18" rx="4"/>
      <rect x="119" y="25" width="18" height="18" rx="4"/>
      <rect x="23" y="69" width="18" height="18" rx="4"/>
      <rect x="71" y="73" width="18" height="18" rx="4"/>
      <rect x="119" y="69" width="18" height="18" rx="4"/>
    </g>
    <path d="M31 90 116 30" stroke="#d4934b" stroke-width="6"/>
    <path d="M31 90 116 30" stroke="#fff0bb" stroke-width="2"/>
    <circle cx="54" cy="64" r="9" fill="#fff6dc" stroke="#08101c" stroke-width="3"/>
    <g stroke="#08101c" stroke-width="2">
      <circle cx="97" cy="47" r="7" fill="#f0c742"/>
      <circle cx="109" cy="54" r="7" fill="#1f6ad4"/>
      <circle cx="97" cy="61" r="7" fill="#c93645"/>
      <circle cx="121" cy="47" r="7" fill="#10131a"/>
      <circle cx="121" cy="61" r="7" fill="#2d8f72"/>
    </g>
    <path d="M55 64h8m8-2h5m8-2h5" stroke="#fff6dc" stroke-width="3" opacity=".85"/>
  </g>
</svg>
