<svg width="512" height="512" viewBox="0 0 512 512" fill="none" xmlns="http://www.w3.org/2000/svg">
  <rect width="512" height="512" rx="112" fill="#1E3A5F"/>
  <rect x="92" y="92" width="328" height="328" rx="72" fill="#FFFFFF"/>
  <rect x="132" y="144" width="104" height="24" rx="12" fill="#4A90E2"/>
  <rect x="132" y="192" width="248" height="18" rx="9" fill="#D7E3F3"/>
  <rect x="132" y="228" width="248" height="18" rx="9" fill="#D7E3F3"/>
  <rect x="132" y="264" width="196" height="18" rx="9" fill="#D7E3F3"/>
  <rect x="132" y="308" width="104" height="64" rx="24" fill="#1E3A5F"/>
  <path d="M165.5 326H203.5V336H176.5V344H200.5V354H176.5V362H203.5V372H165.5V326Z" fill="#FFFFFF"/>
  <rect x="256" y="308" width="124" height="18" rx="9" fill="#4A90E2"/>
  <rect x="256" y="339" width="108" height="18" rx="9" fill="#D7E3F3"/>
  <rect x="256" y="370" width="84" height="18" rx="9" fill="#D7E3F3"/>
</svg>
