<svg xmlns="http://www.w3.org/2000/svg" viewBox="0 0 960 720" role="img" aria-labelledby="title desc">
  <title id="title">Turminha do arco-iris brincando no parque</title>
  <desc id="desc">Cena infantil com arco-iris, sol, nuvens e personagens cartoon sorrindo em um parque colorido.</desc>
  <defs>
    <linearGradient id="sky" x1="0" x2="0" y1="0" y2="1">
      <stop offset="0" stop-color="#8fe3ff"/>
      <stop offset="1" stop-color="#fef7d7"/>
    </linearGradient>
    <linearGradient id="hillA" x1="0" x2="1" y1="0" y2="1">
      <stop offset="0" stop-color="#7adf90"/>
      <stop offset="1" stop-color="#49b66a"/>
    </linearGradient>
    <linearGradient id="hillB" x1="0" x2="1" y1="0" y2="1">
      <stop offset="0" stop-color="#8ad0ff"/>
      <stop offset="1" stop-color="#6a9bff"/>
    </linearGradient>
    <filter id="soft" x="-20%" y="-20%" width="140%" height="140%">
      <feGaussianBlur stdDeviation="10"/>
    </filter>
  </defs>
  <rect width="960" height="720" fill="url(#sky)"/>
  <circle cx="138" cy="132" r="62" fill="#ffd45c"/>
  <g fill="none" stroke-linecap="round" stroke-width="16">
    <path d="M184 242c76-98 184-146 316-146s244 56 332 164" stroke="#ff7ca8"/>
    <path d="M204 262c68-84 170-126 292-126s224 46 302 142" stroke="#ffb05e"/>
    <path d="M228 280c62-68 154-104 264-104s202 36 272 118" stroke="#ffe36a"/>
    <path d="M252 300c58-56 136-86 232-86 94 0 172 30 236 96" stroke="#75df8d"/>
    <path d="M278 320c50-42 120-64 204-64 82 0 152 22 210 74" stroke="#6fb8ff"/>
  </g>
  <g fill="#ffffff">
    <ellipse cx="272" cy="132" rx="48" ry="26"/>
    <ellipse cx="312" cy="132" rx="34" ry="24"/>
    <ellipse cx="680" cy="116" rx="54" ry="28"/>
    <ellipse cx="728" cy="118" rx="36" ry="24"/>
    <ellipse cx="802" cy="180" rx="42" ry="22"/>
    <ellipse cx="836" cy="182" rx="28" ry="18"/>
  </g>
  <ellipse cx="210" cy="564" rx="276" ry="118" fill="url(#hillA)"/>
  <ellipse cx="764" cy="566" rx="304" ry="126" fill="url(#hillB)"/>
  <ellipse cx="482" cy="610" rx="420" ry="154" fill="#5dcc84"/>
  <g opacity=".4" filter="url(#soft)">
    <circle cx="402" cy="366" r="52" fill="#fff6a8"/>
    <circle cx="650" cy="408" r="64" fill="#ffffff"/>
  </g>
  <g transform="translate(180 344)">
    <ellipse cx="98" cy="186" rx="86" ry="30" fill="#7fcf6f" opacity=".35"/>
    <ellipse cx="98" cy="130" rx="54" ry="70" fill="#ffffff"/>
    <circle cx="98" cy="58" r="52" fill="#ffffff"/>
    <ellipse cx="64" cy="16" rx="20" ry="42" fill="#ffd8ea" transform="rotate(-12 64 16)"/>
    <ellipse cx="132" cy="16" rx="20" ry="42" fill="#ffd8ea" transform="rotate(12 132 16)"/>
    <circle cx="80" cy="56" r="6" fill="#243b53"/>
    <circle cx="116" cy="56" r="6" fill="#243b53"/>
    <path d="M82 82c10 12 24 18 36 18 12 0 24-6 34-18" fill="none" stroke="#ff8c88" stroke-linecap="round" stroke-width="8"/>
    <rect x="58" y="116" width="80" height="72" rx="24" fill="#ff8bb5"/>
    <circle cx="40" cy="146" r="14" fill="#ffffff"/>
    <circle cx="156" cy="146" r="14" fill="#ffffff"/>
  </g>
  <g transform="translate(418 336)">
    <ellipse cx="90" cy="206" rx="94" ry="30" fill="#7fcf6f" opacity=".35"/>
    <ellipse cx="90" cy="132" rx="56" ry="76" fill="#ffc65e"/>
    <circle cx="90" cy="60" r="54" fill="#ffd56d"/>
    <polygon points="48,20 64,0 82,26" fill="#ff8a66"/>
    <polygon points="132,20 116,0 98,26" fill="#ff8a66"/>
    <circle cx="72" cy="58" r="6" fill="#243b53"/>
    <circle cx="108" cy="58" r="6" fill="#243b53"/>
    <path d="M72 84c12 10 22 14 36 14s24-4 36-14" fill="none" stroke="#ff8c88" stroke-linecap="round" stroke-width="8"/>
    <rect x="46" y="116" width="88" height="84" rx="26" fill="#7e80ff"/>
    <rect x="62" y="130" width="56" height="18" rx="9" fill="#ffffff" opacity=".8"/>
  </g>
  <g transform="translate(646 352)">
    <ellipse cx="92" cy="190" rx="84" ry="28" fill="#7fcf6f" opacity=".35"/>
    <ellipse cx="92" cy="126" rx="52" ry="70" fill="#91e4ff"/>
    <circle cx="92" cy="62" r="50" fill="#91e4ff"/>
    <circle cx="76" cy="58" r="6" fill="#243b53"/>
    <circle cx="110" cy="58" r="6" fill="#243b53"/>
    <ellipse cx="52" cy="52" rx="20" ry="24" fill="#91e4ff"/>
    <ellipse cx="132" cy="52" rx="20" ry="24" fill="#91e4ff"/>
    <path d="M76 84c10 10 22 16 34 16s22-6 32-16" fill="none" stroke="#ff8c88" stroke-linecap="round" stroke-width="8"/>
    <rect x="50" y="116" width="84" height="72" rx="24" fill="#59cc95"/>
    <circle cx="68" cy="144" r="8" fill="#ffffff"/>
    <circle cx="116" cy="144" r="8" fill="#ffffff"/>
  </g>
  <g transform="translate(98 500)">
    <path d="M0 80c34-46 86-42 122 0" fill="none" stroke="#ff9ec5" stroke-width="18" stroke-linecap="round"/>
    <circle cx="20" cy="76" r="10" fill="#ffd45c"/>
    <circle cx="110" cy="76" r="10" fill="#6fb8ff"/>
  </g>
</svg>
