<svg width="256" height="256" viewBox="0 0 256 256" fill="none" xmlns="http://www.w3.org/2000/svg">
  <title>Rosa dos ventos do Portal Cruzeiro do Sul</title>
  <circle cx="128" cy="128" r="96" stroke="#F0B429" stroke-width="6"/>
  <circle cx="128" cy="128" r="48" stroke="#F0B429" stroke-width="3" opacity=".62"/>
  <path d="M128 32 146 110 224 128 146 146 128 224 110 146 32 128 110 110 128 32Z" fill="#061624" stroke="#F0B429" stroke-width="7" stroke-linejoin="round"/>
  <path d="M128 58 138 118 198 128 138 138 128 198 118 138 58 128 118 118 128 58Z" fill="#F0B429" stroke="#FFE39A" stroke-width="3" stroke-linejoin="round"/>
  <path d="M128 32v192M32 128h192" stroke="#F0B429" stroke-width="3" stroke-linecap="round" opacity=".5"/>
  <path d="M128 84 135 121 172 128 135 135 128 172 121 135 84 128 121 121 128 84Z" fill="#03101D"/>
</svg>
