<svg width="1240" height="760" viewBox="0 0 1240 760" fill="none" xmlns="http://www.w3.org/2000/svg">
  <defs>
    <linearGradient id="meteorBlue" x1="0" y1="0" x2="1" y2="1">
      <stop offset="0" stop-color="#F5FBFF"/>
      <stop offset="0.4" stop-color="#AEE8FF"/>
      <stop offset="1" stop-color="#AEE8FF" stop-opacity="0"/>
    </linearGradient>
    <linearGradient id="meteorGold" x1="0" y1="0" x2="1" y2="1">
      <stop offset="0" stop-color="#FFF7DD"/>
      <stop offset="0.4" stop-color="#FFD18A"/>
      <stop offset="1" stop-color="#FFD18A" stop-opacity="0"/>
    </linearGradient>
    <linearGradient id="beamBlue" x1="0" y1="0" x2="1" y2="0">
      <stop offset="0" stop-color="#BFF3FF"/>
      <stop offset="1" stop-color="#4CC8FF"/>
    </linearGradient>
    <linearGradient id="beamOrange" x1="0" y1="0" x2="1" y2="0">
      <stop offset="0" stop-color="#FFE8C5"/>
      <stop offset="1" stop-color="#FF9D57"/>
    </linearGradient>
    <filter id="softGlow" x="-120" y="-120" width="1480" height="1000" filterUnits="userSpaceOnUse" color-interpolation-filters="sRGB">
      <feGaussianBlur stdDeviation="24"/>
    </filter>
    <filter id="smallGlow" x="-40" y="-40" width="1320" height="840" filterUnits="userSpaceOnUse" color-interpolation-filters="sRGB">
      <feGaussianBlur stdDeviation="10"/>
    </filter>
  </defs>

  <g opacity="0.34" filter="url(#softGlow)">
    <ellipse cx="220" cy="182" rx="180" ry="110" fill="#6FCFFF"/>
    <ellipse cx="614" cy="140" rx="126" ry="86" fill="#91A8FF"/>
    <ellipse cx="990" cy="192" rx="176" ry="108" fill="#FFB78A"/>
    <ellipse cx="802" cy="326" rx="164" ry="74" fill="#79E8D7"/>
  </g>

  <g shape-rendering="crispEdges">
    <g opacity="0.94" fill="#EAF8FF">
      <rect x="62" y="34" width="4" height="4"/>
      <rect x="154" y="62" width="3" height="3"/>
      <rect x="208" y="48" width="5" height="5"/>
      <rect x="294" y="24" width="4" height="4"/>
      <rect x="356" y="72" width="3" height="3"/>
      <rect x="430" y="56" width="4" height="4"/>
      <rect x="524" y="42" width="4" height="4"/>
      <rect x="610" y="26" width="4" height="4"/>
      <rect x="698" y="52" width="3" height="3"/>
      <rect x="772" y="34" width="4" height="4"/>
      <rect x="860" y="58" width="4" height="4"/>
      <rect x="948" y="38" width="3" height="3"/>
      <rect x="1018" y="66" width="4" height="4"/>
      <rect x="1094" y="32" width="4" height="4"/>
      <rect x="1166" y="54" width="3" height="3"/>
      <rect x="94" y="120" width="3" height="3"/>
      <rect x="184" y="142" width="4" height="4"/>
      <rect x="260" y="114" width="3" height="3"/>
      <rect x="330" y="158" width="4" height="4"/>
      <rect x="408" y="118" width="3" height="3"/>
      <rect x="486" y="150" width="4" height="4"/>
      <rect x="566" y="130" width="3" height="3"/>
      <rect x="644" y="160" width="4" height="4"/>
      <rect x="716" y="118" width="3" height="3"/>
      <rect x="796" y="148" width="4" height="4"/>
      <rect x="876" y="122" width="3" height="3"/>
      <rect x="952" y="154" width="4" height="4"/>
      <rect x="1030" y="128" width="3" height="3"/>
      <rect x="1110" y="148" width="4" height="4"/>
      <rect x="1182" y="126" width="3" height="3"/>
      <rect x="80" y="222" width="3" height="3"/>
      <rect x="144" y="262" width="4" height="4"/>
      <rect x="232" y="210" width="3" height="3"/>
      <rect x="314" y="250" width="3" height="3"/>
      <rect x="402" y="216" width="4" height="4"/>
      <rect x="486" y="258" width="3" height="3"/>
      <rect x="568" y="232" width="4" height="4"/>
      <rect x="650" y="268" width="3" height="3"/>
      <rect x="736" y="226" width="4" height="4"/>
      <rect x="828" y="258" width="3" height="3"/>
      <rect x="904" y="222" width="4" height="4"/>
      <rect x="986" y="268" width="3" height="3"/>
      <rect x="1070" y="226" width="4" height="4"/>
      <rect x="1156" y="256" width="3" height="3"/>
    </g>

    <g opacity="0.66" fill="#9ED9FF">
      <rect x="122" y="86" width="2" height="2"/>
      <rect x="244" y="88" width="2" height="2"/>
      <rect x="396" y="84" width="2" height="2"/>
      <rect x="554" y="98" width="2" height="2"/>
      <rect x="716" y="90" width="2" height="2"/>
      <rect x="906" y="82" width="2" height="2"/>
      <rect x="1074" y="98" width="2" height="2"/>
      <rect x="160" y="190" width="2" height="2"/>
      <rect x="286" y="196" width="2" height="2"/>
      <rect x="448" y="192" width="2" height="2"/>
      <rect x="624" y="188" width="2" height="2"/>
      <rect x="784" y="194" width="2" height="2"/>
      <rect x="946" y="188" width="2" height="2"/>
      <rect x="1110" y="194" width="2" height="2"/>
      <rect x="118" y="306" width="2" height="2"/>
      <rect x="266" y="286" width="2" height="2"/>
      <rect x="422" y="314" width="2" height="2"/>
      <rect x="588" y="292" width="2" height="2"/>
      <rect x="752" y="318" width="2" height="2"/>
      <rect x="922" y="294" width="2" height="2"/>
      <rect x="1086" y="308" width="2" height="2"/>
    </g>

    <g opacity="0.84">
      <path d="M148 104L198 78L170 130L120 156L148 104Z" fill="url(#meteorBlue)"/>
      <path d="M316 170L370 144L338 198L284 224L316 170Z" fill="url(#meteorGold)"/>
      <path d="M980 116L1038 86L1004 144L946 174L980 116Z" fill="url(#meteorBlue)"/>
      <path d="M1034 246L1090 220L1056 276L1000 304L1034 246Z" fill="url(#meteorGold)"/>
      <path d="M810 72L846 56L824 96L788 112L810 72Z" fill="url(#meteorBlue)"/>
      <path d="M520 92L566 72L540 118L494 138L520 92Z" fill="url(#meteorBlue)"/>
      <path d="M690 188L742 164L712 214L660 240L690 188Z" fill="url(#meteorGold)"/>
    </g>

    <g opacity="0.86">
      <rect x="826" y="86" width="82" height="10" fill="#DDF8FF"/>
      <rect x="838" y="76" width="58" height="10" fill="#6F9EFF"/>
      <rect x="854" y="66" width="26" height="10" fill="#EAF8FF"/>
      <rect x="862" y="76" width="10" height="10" fill="#F1D5AE"/>
      <rect x="818" y="94" width="14" height="10" fill="#85D4FF"/>
      <rect x="902" y="94" width="14" height="10" fill="#85D4FF"/>
      <rect x="820" y="106" width="12" height="4" fill="#B2F0FF"/>
      <rect x="900" y="106" width="12" height="4" fill="#B2F0FF"/>
      <rect x="914" y="84" width="14" height="4" fill="#D5F4FF"/>
      <rect x="914" y="100" width="14" height="4" fill="#D5F4FF"/>
      <rect x="796" y="84" width="14" height="4" fill="#D5F4FF"/>
      <rect x="796" y="100" width="14" height="4" fill="#D5F4FF"/>
      <rect x="830" y="58" width="10" height="4" fill="#DDF8FF"/>
      <rect x="892" y="58" width="10" height="4" fill="#DDF8FF"/>
      <rect x="816" y="70" width="8" height="4" fill="#B7EFFF"/>
      <rect x="908" y="70" width="8" height="4" fill="#B7EFFF"/>
    </g>

    <g opacity="0.84">
      <rect x="236" y="160" width="58" height="10" fill="#D6F7FF"/>
      <rect x="248" y="148" width="34" height="10" fill="#9CE7FF"/>
      <rect x="258" y="136" width="14" height="10" fill="#EAF8FF"/>
      <rect x="262" y="148" width="6" height="10" fill="#DBCAA8"/>
      <rect x="224" y="156" width="10" height="4" fill="#A7EBFF"/>
      <rect x="296" y="156" width="10" height="4" fill="#A7EBFF"/>
    </g>

    <g opacity="0.9">
      <rect x="332" y="112" width="68" height="8" fill="#EAF8FF"/>
      <rect x="344" y="102" width="44" height="10" fill="#7DA7FF"/>
      <rect x="354" y="92" width="24" height="10" fill="#F7FBFF"/>
      <rect x="362" y="102" width="8" height="8" fill="#E4C9A0"/>
      <rect x="320" y="108" width="10" height="4" fill="#D8F4FF"/>
      <rect x="402" y="108" width="10" height="4" fill="#D8F4FF"/>
      <rect x="324" y="90" width="12" height="4" fill="#A7E7FF"/>
      <rect x="396" y="90" width="12" height="4" fill="#A7E7FF"/>
      <rect x="316" y="82" width="8" height="4" fill="#EAF8FF"/>
      <rect x="408" y="82" width="8" height="4" fill="#EAF8FF"/>
    </g>

    <g opacity="0.8">
      <rect x="544" y="248" width="14" height="14" fill="#A3F783"/>
      <rect x="540" y="252" width="4" height="6" fill="#A3F783"/>
      <rect x="558" y="252" width="4" height="6" fill="#A3F783"/>
      <rect x="548" y="256" width="2" height="2" fill="#0B1621"/>
      <rect x="552" y="256" width="2" height="2" fill="#0B1621"/>

      <rect x="582" y="236" width="14" height="14" fill="#8EF76F"/>
      <rect x="578" y="240" width="4" height="6" fill="#8EF76F"/>
      <rect x="596" y="240" width="4" height="6" fill="#8EF76F"/>
      <rect x="586" y="244" width="2" height="2" fill="#0B1621"/>
      <rect x="590" y="244" width="2" height="2" fill="#0B1621"/>

      <rect x="620" y="254" width="14" height="14" fill="#BAFF8C"/>
      <rect x="616" y="258" width="4" height="6" fill="#BAFF8C"/>
      <rect x="634" y="258" width="4" height="6" fill="#BAFF8C"/>
      <rect x="624" y="262" width="2" height="2" fill="#0B1621"/>
      <rect x="628" y="262" width="2" height="2" fill="#0B1621"/>
    </g>

    <g opacity="0.78" filter="url(#smallGlow)">
      <rect x="454" y="322" width="44" height="8" fill="#8AE5FF"/>
      <rect x="450" y="330" width="52" height="6" fill="#8AE5FF" fill-opacity="0.72"/>
      <rect x="670" y="342" width="60" height="8" fill="#FFD1A1"/>
      <rect x="666" y="350" width="68" height="6" fill="#FFD1A1" fill-opacity="0.72"/>
    </g>

    <g opacity="0.7">
      <rect x="332" y="404" width="556" height="8" fill="#315274"/>
      <rect x="360" y="394" width="28" height="10" fill="#54779F"/>
      <rect x="430" y="390" width="18" height="14" fill="#54779F"/>
      <rect x="546" y="394" width="24" height="10" fill="#54779F"/>
      <rect x="676" y="390" width="18" height="14" fill="#54779F"/>
      <rect x="770" y="394" width="24" height="10" fill="#54779F"/>
      <rect x="846" y="390" width="22" height="14" fill="#54779F"/>
    </g>

    <g opacity="0.94">
      <rect x="104" y="410" width="30" height="8" fill="#0F2233"/>
      <rect x="112" y="392" width="14" height="18" fill="#E2B58D"/>
      <rect x="108" y="384" width="22" height="8" fill="#F3D067"/>
      <rect x="106" y="402" width="26" height="28" fill="#20446F"/>
      <rect x="114" y="410" width="8" height="16" fill="#F7FBFF"/>
      <rect x="118" y="410" width="2" height="16" fill="#D56B38"/>
      <rect x="104" y="430" width="10" height="20" fill="#112031"/>
      <rect x="122" y="430" width="10" height="20" fill="#112031"/>
    </g>

    <g opacity="0.94">
      <rect x="188" y="412" width="28" height="8" fill="#0F2233"/>
      <rect x="196" y="394" width="12" height="18" fill="#D7AE88"/>
      <rect x="192" y="386" width="20" height="8" fill="#1A1A1F"/>
      <rect x="190" y="404" width="24" height="26" fill="#3D4236"/>
      <rect x="198" y="412" width="6" height="14" fill="#E7F3FF"/>
      <rect x="206" y="412" width="6" height="14" fill="#6A985E"/>
      <rect x="188" y="430" width="10" height="20" fill="#0E1A2A"/>
      <rect x="206" y="430" width="10" height="20" fill="#0E1A2A"/>
      <rect x="178" y="408" width="10" height="4" fill="#FFE9C8"/>
      <rect x="148" y="408" width="30" height="4" fill="url(#beamOrange)"/>
      <rect x="138" y="404" width="10" height="10" fill="#FFEFD4"/>
    </g>

    <g opacity="0.94">
      <rect x="258" y="414" width="30" height="8" fill="#102235"/>
      <rect x="266" y="396" width="14" height="18" fill="#C89874"/>
      <rect x="262" y="388" width="22" height="8" fill="#2B171B"/>
      <rect x="260" y="406" width="26" height="26" fill="#512637"/>
      <rect x="268" y="414" width="8" height="14" fill="#F5D15B"/>
      <rect x="276" y="414" width="4" height="14" fill="#56A8FF"/>
      <rect x="280" y="414" width="4" height="14" fill="#F05857"/>
      <rect x="258" y="432" width="10" height="20" fill="#0E1A2A"/>
      <rect x="276" y="432" width="10" height="20" fill="#0E1A2A"/>
      <rect x="248" y="410" width="10" height="4" fill="#FFF0D8"/>
      <rect x="228" y="410" width="20" height="4" fill="url(#beamOrange)"/>
      <rect x="220" y="406" width="8" height="10" fill="#FFE9CB"/>
    </g>

    <g opacity="0.92">
      <rect x="0" y="518" width="1240" height="4" fill="#315274" fill-opacity="0.66"/>
      <path d="M0 618H90L138 594L196 618L262 580L330 622L410 586L488 616L576 578L652 622L732 584L820 620L912 590L990 622L1080 582L1162 618H1240V760H0V618Z" fill="#14263A" fill-opacity="0.82"/>
      <path d="M0 646H70L124 626L188 650L252 618L334 650L416 620L500 648L584 616L670 652L760 626L846 654L942 626L1036 648L1130 620L1240 652V760H0V646Z" fill="#0B1625" fill-opacity="0.96"/>
    </g>

    <g transform="translate(10 -118)" opacity="0.96">
      <rect x="380" y="508" width="42" height="10" fill="#102235"/>
      <rect x="392" y="484" width="18" height="24" fill="#F0C5A2"/>
      <rect x="388" y="476" width="26" height="10" fill="#F5D36A"/>
      <rect x="384" y="492" width="34" height="36" fill="#1E3C63"/>
      <rect x="396" y="500" width="10" height="24" fill="#F7FAFF"/>
      <rect x="400" y="500" width="2" height="24" fill="#D66F39"/>
      <rect x="380" y="530" width="14" height="28" fill="#14253A"/>
      <rect x="408" y="530" width="14" height="28" fill="#14253A"/>
      <rect x="372" y="504" width="10" height="24" fill="#1E3C63"/>
      <rect x="420" y="504" width="10" height="24" fill="#1E3C63"/>
      <rect x="428" y="498" width="12" height="6" fill="#FFF4DC"/>
      <rect x="438" y="500" width="88" height="4" fill="url(#beamBlue)"/>
      <rect x="526" y="496" width="14" height="12" fill="#DDF8FF"/>
    </g>

    <g transform="translate(-250 -120)" opacity="0.94">
      <rect x="694" y="512" width="38" height="10" fill="#0F2233"/>
      <rect x="704" y="488" width="18" height="24" fill="#D8B08A"/>
      <rect x="700" y="478" width="26" height="10" fill="#1B1A1F"/>
      <rect x="698" y="494" width="30" height="10" fill="#1B1A1F"/>
      <rect x="696" y="504" width="34" height="40" fill="#3B4134"/>
      <rect x="704" y="516" width="6" height="18" fill="#E8F3FF"/>
      <rect x="714" y="516" width="10" height="18" fill="#6C9B5D"/>
      <rect x="694" y="544" width="14" height="26" fill="#101C2C"/>
      <rect x="716" y="544" width="14" height="26" fill="#101C2C"/>
      <rect x="688" y="520" width="10" height="20" fill="#3B4134"/>
      <rect x="730" y="520" width="10" height="20" fill="#3B4134"/>
      <rect x="676" y="500" width="12" height="6" fill="#FFF6E1"/>
      <rect x="628" y="500" width="48" height="4" fill="url(#beamOrange)"/>
      <rect x="616" y="496" width="12" height="12" fill="#FFE8C3"/>
    </g>

    <g transform="translate(-300 -112)" opacity="0.94">
      <rect x="794" y="514" width="40" height="10" fill="#102235"/>
      <rect x="804" y="490" width="18" height="24" fill="#C79673"/>
      <rect x="800" y="480" width="26" height="10" fill="#28171A"/>
      <rect x="798" y="506" width="34" height="40" fill="#4B2433"/>
      <rect x="808" y="514" width="10" height="18" fill="#F4D35C"/>
      <rect x="818" y="514" width="6" height="18" fill="#4CA8FF"/>
      <rect x="824" y="514" width="6" height="18" fill="#EF5B58"/>
      <rect x="798" y="546" width="14" height="26" fill="#101C2C"/>
      <rect x="820" y="546" width="14" height="26" fill="#101C2C"/>
      <rect x="792" y="522" width="10" height="20" fill="#4B2433"/>
      <rect x="834" y="522" width="10" height="20" fill="#4B2433"/>
      <rect x="784" y="502" width="12" height="6" fill="#FFF4DC"/>
      <rect x="748" y="502" width="36" height="4" fill="url(#beamOrange)"/>
      <rect x="736" y="498" width="12" height="12" fill="#FFE5BE"/>
    </g>

    <g opacity="0.64">
      <rect x="568" y="522" width="20" height="34" fill="#17314E"/>
      <rect x="564" y="514" width="28" height="10" fill="#1F4B7A"/>
      <rect x="572" y="504" width="12" height="10" fill="#A2F983"/>
      <rect x="572" y="508" width="2" height="2" fill="#08121B"/>
      <rect x="580" y="508" width="2" height="2" fill="#08121B"/>
    </g>
  </g>
</svg>
