<svg xmlns="http://www.w3.org/2000/svg" viewBox="0 0 1200 720" role="img" aria-label="Cena editorial em pixel art com artistas e sprites">
  <rect width="1200" height="720" fill="#090d14"/>
  <rect x="0" y="0" width="1200" height="720" fill="#122034"/>
  <g opacity=".24">
    <path d="M0 80h1200M0 160h1200M0 240h1200M0 320h1200M0 400h1200M0 480h1200M0 560h1200M0 640h1200" stroke="#6be8ff" stroke-width="4"/>
    <path d="M80 0v720M160 0v720M240 0v720M320 0v720M400 0v720M480 0v720M560 0v720M640 0v720M720 0v720M800 0v720M880 0v720M960 0v720M1040 0v720M1120 0v720" stroke="#6be8ff" stroke-width="4"/>
  </g>
  <rect x="110" y="92" width="980" height="536" rx="0" fill="#0c111b" stroke="#f5c864" stroke-width="10"/>
  <rect x="150" y="132" width="900" height="456" fill="#151a26"/>
  <g>
    <rect x="196" y="188" width="112" height="112" fill="#f5c864"/>
    <rect x="224" y="216" width="28" height="28" fill="#111827"/>
    <rect x="280" y="216" width="28" height="28" fill="#111827"/>
    <rect x="224" y="272" width="84" height="28" fill="#26324a"/>
    <rect x="168" y="300" width="168" height="84" fill="#38446b"/>
    <rect x="196" y="384" width="42" height="84" fill="#111827"/>
    <rect x="266" y="384" width="42" height="84" fill="#111827"/>
  </g>
  <g>
    <rect x="466" y="176" width="196" height="196" fill="#23395b"/>
    <rect x="494" y="204" width="140" height="28" fill="#6be8ff"/>
    <rect x="494" y="260" width="28" height="28" fill="#f0719b"/>
    <rect x="550" y="260" width="28" height="28" fill="#f5c864"/>
    <rect x="606" y="260" width="28" height="28" fill="#77e6a6"/>
    <rect x="494" y="316" width="140" height="28" fill="#e9f7ff"/>
  </g>
  <g>
    <rect x="790" y="196" width="140" height="84" fill="#77e6a6"/>
    <rect x="818" y="224" width="28" height="28" fill="#0c111b"/>
    <rect x="874" y="224" width="28" height="28" fill="#0c111b"/>
    <rect x="762" y="280" width="196" height="112" fill="#213046"/>
    <rect x="790" y="392" width="42" height="84" fill="#0c111b"/>
    <rect x="888" y="392" width="42" height="84" fill="#0c111b"/>
  </g>
  <rect x="170" y="520" width="860" height="36" fill="#f5c864"/>
  <rect x="170" y="560" width="640" height="20" fill="#6be8ff"/>
  <rect x="170" y="590" width="720" height="20" fill="#77e6a6"/>
</svg>
